<svg id="Group_4509" data-name="Group 4509" xmlns="http://www.w3.org/2000/svg" xmlns:xlink="http://www.w3.org/1999/xlink" width="74" height="74" viewBox="0 0 74 74">
  <defs>
    <clipPath id="clip-path">
      <rect id="Rectangle_4267" data-name="Rectangle 4267" width="54.306" height="54.306" fill="#fff"/>
    </clipPath>
  </defs>
  <rect id="Rectangle_4268" data-name="Rectangle 4268" width="74" height="74" fill="none"/>
  <g id="Group_4508" data-name="Group 4508" transform="translate(9.847 9.847)">
    <g id="Group_4507" data-name="Group 4507" clip-path="url(#clip-path)">
      <path id="Path_6796" data-name="Path 6796" d="M33.773,3.774c0-.59-.007-1.145,0-1.7A1.916,1.916,0,0,1,35.687,0,1.894,1.894,0,0,1,37.6,2.062c.007.554,0,1.109,0,1.759.778,0,1.506.011,2.235,0a9.78,9.78,0,0,1,3.632.582,9.553,9.553,0,0,1,6.258,8.91c.036,2.091.018,4.182,0,6.273a1.916,1.916,0,1,1-3.818-.012c-.008-2.012.013-4.023-.007-6.035a5.65,5.65,0,0,0-4.76-5.787A23.819,23.819,0,0,0,37.6,7.722c0,.536.006,1.106,0,1.676a1.931,1.931,0,0,1-1.92,2.067,1.968,1.968,0,0,1-1.9-2.045c-.013-.556,0-1.113,0-1.722H15.933c0,.538,0,1.106,0,1.674a1.919,1.919,0,1,1-3.823.017c0-.554,0-1.109,0-1.708C9.772,7.594,7.469,7.394,5.622,9.2a5.464,5.464,0,0,0-1.774,3.918c-.031,2.091-.018,4.182-.018,6.273q0,12.159,0,24.318A5.683,5.683,0,0,0,8.31,49.552a7.636,7.636,0,0,0,1.66.156q7.321.017,14.641,0A1.956,1.956,0,0,1,26.621,50.9a1.884,1.884,0,0,1-1.266,2.546,3.428,3.428,0,0,1-.828.087c-4.94,0-9.88.015-14.82,0A9.511,9.511,0,0,1,.358,46.5,10.388,10.388,0,0,1,.02,43.854Q-.015,28.678.01,13.5A9.487,9.487,0,0,1,9.693,3.822c.774,0,1.548,0,2.414,0,0-.608,0-1.176,0-1.743a1.917,1.917,0,1,1,3.823-.022c0,.556,0,1.113,0,1.718Z" transform="translate(-0.251 -0.252)" fill="#fff"/>
      <path id="Path_6797" data-name="Path 6797" d="M207.672,174.9c-4.446-.86-7.082-4.3-6.676-8.525a7.649,7.649,0,0,1,15.228.414,7.817,7.817,0,0,1-6.543,8.151c.385.069.771.128,1.153.209a11.85,11.85,0,0,1,9.062,7.584,4.4,4.4,0,0,1-4.246,6.184q-7.051.022-14.1.023a4.443,4.443,0,0,1-4.591-3.636,5.95,5.95,0,0,1,1.061-4.188,12.033,12.033,0,0,1,9.143-6.092c.114-.016.224-.053.511-.123m.846,10.219v-.026q3.465,0,6.93,0c.962,0,1.175-.323.807-1.216a8.3,8.3,0,0,0-7.619-5.121,8.4,8.4,0,0,0-7.741,5.138c-.365.877-.138,1.222.814,1.223q3.4,0,6.81,0M204.785,167.3a3.819,3.819,0,1,0,3.8-3.846,3.81,3.81,0,0,0-3.8,3.846" transform="translate(-165.706 -134.401)" fill="#fff"/>
      <path id="Path_6798" data-name="Path 6798" d="M72.108,195.44c-2.07,0-4.14.014-6.21,0a1.922,1.922,0,0,1-1.933-2.58,1.892,1.892,0,0,1,1.916-1.236q4.956-.01,9.912,0c.876,0,1.752-.01,2.627,0a1.909,1.909,0,1,1,.016,3.814c-2.109.023-4.219.007-6.329.007" transform="translate(-53.899 -161.276)" fill="#fff"/>
      <path id="Path_6799" data-name="Path 6799" d="M69.669,131.405c-1.253,0-2.506.009-3.76,0a1.91,1.91,0,1,1-.045-3.814q3.879-.03,7.758,0a1.907,1.907,0,1,1-.014,3.812c-1.313.015-2.626,0-3.938,0" transform="translate(-53.929 -107.46)" fill="#fff"/>
    </g>
  </g>
</svg>
