<svg xmlns="http://www.w3.org/2000/svg" xmlns:xlink="http://www.w3.org/1999/xlink" width="12" height="12" viewBox="0 0 12 12">
  <defs>
    <clipPath id="clip-path">
      <rect id="Rectangle_4109" data-name="Rectangle 4109" width="6.59" height="3.727" fill="#7c868d"/>
    </clipPath>
  </defs>
  <g id="Group_4536" data-name="Group 4536" transform="translate(-4597 -200.332)">
    <g id="Group_4487" data-name="Group 4487" transform="translate(4599.354 204.801)">
      <g id="Group_4486" data-name="Group 4486" transform="translate(0 0)" clip-path="url(#clip-path)">
        <path id="Path_6791" data-name="Path 6791" d="M3.3,2.678c.041-.039.077-.071.111-.106.8-.8,1.6-1.6,2.405-2.4A.646.646,0,0,1,6.119.009.379.379,0,0,1,6.54.23a.427.427,0,0,1-.064.487C6.45.746,6.421.775,6.392.8L3.677,3.517c-.28.28-.485.279-.767,0Q1.543,2.149.178.779A.682.682,0,0,1,.015.511.4.4,0,0,1,.192.069.435.435,0,0,1,.683.083,1.141,1.141,0,0,1,.8.191L3.185,2.573c.034.034.07.066.11.1" transform="translate(0 0)" fill="#7c868d"/>
      </g>
    </g>
    <rect id="Rectangle_3919" data-name="Rectangle 3919" width="12" height="12" transform="translate(4597 212.332) rotate(-90)" fill="none"/>
  </g>
</svg>
