<svg id="Group_4675" data-name="Group 4675" xmlns="http://www.w3.org/2000/svg" width="14" height="13.999" viewBox="0 0 14 13.999">
  <g id="Group_155" data-name="Group 155" transform="translate(0 0)">
    <path id="Path_63" data-name="Path 63" d="M0,7a7,7,0,1,1,6.992,7A7,7,0,0,1,0,7m6.1.739a2.257,2.257,0,0,0-.14-.185Q5.441,7.026,4.914,6.5a.734.734,0,0,0-.729-.215.757.757,0,0,0-.36,1.282c.544.555,1.1,1.1,1.645,1.651a.784.784,0,0,0,1.26,0L10.1,5.848a1.582,1.582,0,0,0,.148-.162A.759.759,0,0,0,9.877,4.5a.768.768,0,0,0-.822.231q-1.4,1.4-2.8,2.8a2.274,2.274,0,0,0-.154.2" transform="translate(0 0)" fill="#10cfc9"/>
  </g>
</svg>
