<svg xmlns="http://www.w3.org/2000/svg" width="12" height="12" viewBox="0 0 12 12">
  <g id="Group_4812" data-name="Group 4812" transform="translate(0 0)">
    <g id="Group_4813" data-name="Group 4813" transform="translate(0 0)">
      <path id="Path_6825" data-name="Path 6825" d="M5.991,7.364a2.016,2.016,0,0,1-.159.22q-2.027,2.03-4.056,4.059A1,1,0,1,1,.265,10.32c.152-.169.319-.325.48-.486L4.416,6.164c.05-.05.1-.1.156-.163-.059-.062-.111-.119-.165-.173Q2.379,3.8.35,1.772A1,1,0,0,1,.02.823,1,1,0,0,1,1.657.247c.059.05.114.107.169.162q2,2,4,4c.05.05.091.111.149.183.078-.074.134-.125.187-.178Q8.2,2.381,10.236.345a1,1,0,0,1,1.581,1.228,1.9,1.9,0,0,1-.219.248Q9.59,3.83,7.581,5.837c-.05.05-.1.1-.154.162.055.058.1.111.151.16q2.035,2.036,4.072,4.07a1,1,0,0,1-1.232,1.582,1.913,1.913,0,0,1-.232-.207q-2-2-4-4c-.055-.055-.1-.121-.193-.238" transform="translate(0 0)" fill="#10cfc9"/>
    </g>
  </g>
</svg>
