<svg xmlns="http://www.w3.org/2000/svg" width="16" height="16" viewBox="0 0 16 16">
  <g id="Group_4812" data-name="Group 4812" transform="translate(0 0)">
    <g id="Group_4813" data-name="Group 4813" transform="translate(0 0)">
      <path id="Path_6825" data-name="Path 6825" d="M7.988,9.819a2.688,2.688,0,0,1-.212.293q-2.7,2.707-5.408,5.412A1.339,1.339,0,1,1,.353,13.76c.2-.225.426-.433.64-.648L5.888,8.218c.066-.066.13-.136.208-.218-.079-.083-.148-.158-.219-.23Q3.172,5.066.466,2.362A1.34,1.34,0,0,1,.027,1.1,1.33,1.33,0,0,1,2.209.33c.079.067.151.143.225.216Q5.1,3.213,7.771,5.882c.067.067.121.147.2.244.1-.1.178-.167.249-.238Q10.934,3.175,13.648.46A1.337,1.337,0,0,1,15.755,2.1a2.528,2.528,0,0,1-.292.33q-2.676,2.678-5.355,5.354c-.066.066-.129.135-.206.215.073.078.135.148.2.214q2.714,2.714,5.429,5.427a1.338,1.338,0,0,1-1.642,2.109,2.551,2.551,0,0,1-.31-.276q-2.669-2.667-5.335-5.336c-.073-.073-.132-.161-.257-.317" transform="translate(0 0)" fill="#10cfc9"/>
    </g>
  </g>
</svg>
