<svg xmlns="http://www.w3.org/2000/svg" width="38" height="38" viewBox="0 0 38 38">
  <g id="Group_4656" data-name="Group 4656" transform="translate(-5782 -986)">
    <rect id="Rectangle_4273" data-name="Rectangle 4273" width="38" height="38" transform="translate(5782 986)" fill="none"/>
    <g id="Group_4527" data-name="Group 4527" transform="translate(5784.714 988.714)">
      <g id="Group_4528" data-name="Group 4528" transform="translate(0 0)">
        <path id="Path_6818" data-name="Path 6818" d="M0,74.359V59.082H.356c1.97,0,3.94,0,5.909,0a1.518,1.518,0,0,0,.548-.109,7.564,7.564,0,0,0,4.69-6.94c.008-1.994,0-3.988,0-5.982v-.367a5.078,5.078,0,0,1,3.922,1.034,4.671,4.671,0,0,1,1.764,3.715c.012,2.121,0,4.243,0,6.364v.377H26.8c-.117.949-.228,1.861-.341,2.774Q26.03,63.4,25.6,66.853q-.427,3.439-.856,6.878c-.026.21-.061.419-.092.629H13.212a1.263,1.263,0,0,0-.206-.057,9.254,9.254,0,0,1-4.434-1.65,1.182,1.182,0,0,0-.923-.178v1.885ZM13.4,47.727v.389c0,1.294.033,2.589-.006,3.882a9.32,9.32,0,0,1-5.48,8.576.4.4,0,0,0-.272.419q.013,4.614.006,9.228c0,.1.009.2.015.321.344,0,.66-.02.973.008a1,1,0,0,1,.508.174A7.831,7.831,0,0,0,14.12,72.45q4.266,0,8.532,0H23l.231-1.917H19.113V68.62h4.355l.237-1.907h-4.59V64.8h4.829l.23-1.9H19.111V60.987h5.3l.238-1.908H15.3v-.408c0-2.7.007-5.409-.008-8.114a3.586,3.586,0,0,0-.192-1.149,2.737,2.737,0,0,0-1.7-1.681M5.737,61.013H1.919V72.434H5.737Z" transform="translate(0 -41.788)" fill="#10cfc9"/>
        <path id="Path_6819" data-name="Path 6819" d="M239.308,7.339c-.086.4-.15.805-.261,1.2a6.684,6.684,0,1,1,.138-3.108c.038.216.082.431.124.646Zm-1.9-.634a4.741,4.741,0,1,0-4.741,4.742,4.781,4.781,0,0,0,4.741-4.742" transform="translate(-206.737 0)" fill="#10cfc9"/>
        <path id="Path_6820" data-name="Path 6820" d="M264.074,52.276l1.25-1.244,1.15,1.169,3.107-3.114,1.347,1.344L266.561,54.8l-2.487-2.52" transform="translate(-241.567 -44.942)" fill="#10cfc9"/>
      </g>
    </g>
  </g>
</svg>
