<svg xmlns="http://www.w3.org/2000/svg" width="16" height="16" viewBox="0 0 16 16">
  <g id="Group_4634" data-name="Group 4634" transform="translate(-487 -1205)">
    <rect id="Rectangle_4369" data-name="Rectangle 4369" width="16" height="16" transform="translate(487 1205)" fill="none"/>
    <g id="Group_4632" data-name="Group 4632" transform="translate(488.5 1208.5)">
      <g id="Group_4633" data-name="Group 4633" transform="translate(0.5 0.5)">
        <path id="Path_6845" data-name="Path 6845" d="M9.868,9.141H5.634a.5.5,0,0,1-.276-.186L4.306,7.932H3.291a.324.324,0,0,1-.3-.351V4.135a.337.337,0,0,1,.37-.293H4a.329.329,0,0,0,.323-.362.424.424,0,0,1,.393-.432h3.8a.383.383,0,0,1,.338.36v.5s0,.3.381.326h.63a.318.318,0,0,1,.36.338L10.2,8.752A.431.431,0,0,1,9.868,9.141Z" transform="translate(-1.347 -1.286)" fill="none" stroke="#7c868d" stroke-linecap="round" stroke-linejoin="round" stroke-width="1"/>
        <path id="Path_6846" data-name="Path 6846" d="M16.624,9.532h0a.465.465,0,0,1-.465-.465V6.485a.465.465,0,0,1,.465-.465A1.079,1.079,0,0,1,17.7,7.1V8.453A1.079,1.079,0,0,1,16.624,9.532Z" transform="translate(-5.704 -2.297)" fill="none" stroke="#7c868d" stroke-linecap="round" stroke-linejoin="round" stroke-width="1"/>
        <line id="Line_101" data-name="Line 101" x2="1.136" transform="translate(9.002 4.46)" fill="none" stroke="#7c868d" stroke-linecap="round" stroke-linejoin="round" stroke-width="1"/>
        <line id="Line_102" data-name="Line 102" x2="1.136" transform="translate(9.002 6.248)" fill="none" stroke="#7c868d" stroke-linecap="round" stroke-linejoin="round" stroke-width="1"/>
        <line id="Line_103" data-name="Line 103" x2="1.101" transform="translate(0.43 4.554)" fill="none" stroke="#7c868d" stroke-linecap="round" stroke-linejoin="round" stroke-width="1"/>
        <line id="Line_104" data-name="Line 104" x2="3.963" transform="translate(3.432)" fill="none" stroke="#7c868d" stroke-linecap="round" stroke-linejoin="round" stroke-width="1"/>
        <line id="Line_105" data-name="Line 105" y1="3.157" transform="translate(0 2.885)" fill="none" stroke="#7c868d" stroke-linecap="round" stroke-linejoin="round" stroke-width="1"/>
        <line id="Line_106" data-name="Line 106" y2="1.197" transform="translate(4.608 0.464)" fill="none" stroke="#7c868d" stroke-linecap="round" stroke-linejoin="round" stroke-width="1"/>
        <line id="Line_107" data-name="Line 107" y2="1.197" transform="translate(6.193 0.464)" fill="none" stroke="#7c868d" stroke-linecap="round" stroke-linejoin="round" stroke-width="1"/>
      </g>
    </g>
  </g>
</svg>
