<svg id="Group_4506" data-name="Group 4506" xmlns="http://www.w3.org/2000/svg" width="74" height="74" viewBox="0 0 74 74">
  <rect id="Rectangle_4265" data-name="Rectangle 4265" width="74" height="74" fill="none"/>
  <g id="Group_4505" data-name="Group 4505" transform="translate(8.74 8.741)">
    <path id="Path_6793" data-name="Path 6793" d="M52.62,33.665c.659.331,1.241.612,1.813.913a4.919,4.919,0,0,1,2.845,4.583c.017,2.348.024,4.7,0,7.045a5.007,5.007,0,0,1-5.117,5.155c-1.073.026-2.148.021-3.222,0a.7.7,0,0,0-.744.492,7.532,7.532,0,0,1-13.831-.029.663.663,0,0,0-.7-.462q-5.873.017-11.746,0c-.382,0-.527.16-.68.482a7.259,7.259,0,0,1-6.919,4.544A7.234,7.234,0,0,1,7.414,51.83a.726.726,0,0,0-.76-.473,15.444,15.444,0,0,1-2.929-.211A4.819,4.819,0,0,1,.033,46.516c-.046-2.3-.04-4.607-.009-6.91a4.921,4.921,0,0,1,3.821-4.824q4.509-1.162,9.035-2.262A2.313,2.313,0,0,0,14.534,31.2c1.03-2.107,2.089-4.2,3.137-6.3a5.04,5.04,0,0,1,4.891-3.013c.871.009,1.743,0,2.721,0v-.8q0-7.816,0-15.632C25.285,2.093,27.359,0,30.705,0Q39.6,0,48.492,0c3.352,0,5.419,2.08,5.42,5.452,0,8.051-.013,16.1.014,24.153a5.749,5.749,0,0,1-1.305,4.058m-34.664-1.8H35.734c1.413,0,2.188.606,2.182,1.7s-.76,1.665-2.2,1.665q-8.591,0-17.182,0a16.531,16.531,0,0,0-5.01.563c-2.834.873-5.752,1.477-8.632,2.2a1.686,1.686,0,0,0-1.5,1.9c-.007,1.767.06,3.536-.017,5.3-.116,2.686.829,2.877,2.9,2.818.456-.013.578-.167.661-.6a7.52,7.52,0,0,1,14.537-.973c.167.5.273,1.022.406,1.528.128.014.216.032.3.032,3.691,0,7.383-.006,11.074.013.488,0,.571-.219.647-.628A7.486,7.486,0,0,1,43,41.482a7.28,7.28,0,0,1,5.657,5.885c.109.484.277.663.782.639.893-.043,1.79.007,2.684-.019a1.655,1.655,0,0,0,1.784-1.814c.013-2.3,0-4.607.008-6.91a1.724,1.724,0,0,0-1-1.677c-1.552-.792-3.117-1.56-4.645-2.4a2.46,2.46,0,0,1-.941-.972c-1.383-2.653-2.718-5.332-4.077-8a1.657,1.657,0,0,0-1.57-.961q-9.665,0-19.33,0a1.538,1.538,0,0,0-1.46.794c-.977,1.879-1.913,3.778-2.936,5.811m31.8-.183a1.764,1.764,0,0,0,.8-1.665Q50.539,17.7,50.545,5.388c0-1.425-.608-2.019-2.054-2.019q-8.895,0-17.789,0c-1.457,0-2.053.608-2.053,2.093q0,7.851,0,15.7v.682c.512,0,.914.012,1.316,0s.8-.058,1.181-.087c.3-1.185.776-1.66,1.82-1.669q4.162-.035,8.324,0c1.04.01,1.467.468,1.636,1.5a.766.766,0,0,0,.346.539,5.488,5.488,0,0,1,3.258,3.087c1.037,2.151,2.13,4.276,3.226,6.466M14.29,53.04a4.209,4.209,0,1,0-4.172-4.253A4.221,4.221,0,0,0,14.29,53.04m27.017,0a4.208,4.208,0,1,0-4.218-4.2,4.2,4.2,0,0,0,4.218,4.2" transform="translate(0 0)" fill="#fff"/>
    <path id="Path_6794" data-name="Path 6794" d="M181.638,77.8q-2.988,0-5.975,0a1.645,1.645,0,0,1-1.553-.949,1.627,1.627,0,0,1,.134-1.754,1.759,1.759,0,0,1,1.544-.742c3.938,0,7.876-.012,11.814.005a1.724,1.724,0,1,1,.012,3.44c-1.992.022-3.984.006-5.976.006Z" transform="translate(-142.999 -61.039)" fill="#fff"/>
    <path id="Path_6795" data-name="Path 6795" d="M181.763,40.254c-1.924,0-3.847,0-5.77,0-1.22,0-1.985-.654-2-1.684-.019-1.061.765-1.76,2-1.762q5.77-.007,11.541,0a1.739,1.739,0,1,1,0,3.445c-1.923.008-3.847,0-5.77,0" transform="translate(-143.06 -30.045)" fill="#fff"/>
  </g>
</svg>
