<svg xmlns="http://www.w3.org/2000/svg" width="74" height="74" viewBox="0 0 74 74">
  <g id="Group_4749" data-name="Group 4749" transform="translate(-0.888 -0.888)">
    <rect id="Rectangle_4266" data-name="Rectangle 4266" width="74" height="74" transform="translate(0.888 0.888)" fill="none"/>
    <g id="Group_4510" data-name="Group 4510" transform="translate(9.407 9.689)">
      <path id="Path_6801" data-name="Path 6801" d="M142.086,0a5.539,5.539,0,0,1,.635,1.039c.518,1.5.987,3.021,1.484,4.563h4.623c.183,0,.366,0,.549,0a.885.885,0,0,1,.537,1.634l-3.56,2.574c-.193.139-.383.282-.623.458.258.8.516,1.614.779,2.425s.518,1.6.786,2.4a.91.91,0,0,1-.258,1.138.936.936,0,0,1-1.208-.1c-1.238-.912-2.488-1.807-3.719-2.728a.5.5,0,0,0-.71,0c-1.217.91-2.455,1.791-3.675,2.695a.964.964,0,0,1-1.252.133.945.945,0,0,1-.239-1.191c.522-1.577,1.031-3.158,1.554-4.767l-3.7-2.681c-.163-.118-.328-.234-.491-.352a.885.885,0,0,1,.538-1.634c1.5,0,3,0,4.5,0h.658c.266-.811.533-1.62.8-2.43.236-.73.437-1.474.713-2.189a5.867,5.867,0,0,1,.62-.986Zm-5.3,7.364c.884.643,1.624,1.2,2.386,1.729a1.021,1.021,0,0,1,.418,1.329c-.232.654-.436,1.317-.649,1.977-.068.209-.125.421-.187.632a24.482,24.482,0,0,0,2.231-1.492c.669-.483.881-.484,1.564.01.706.51,1.407,1.027,2.11,1.54a20.053,20.053,0,0,0-.7-2.548c-.262-.811-.19-1.029.5-1.53l2.27-1.647c-1.123,0-2.071-.009-3.018,0a.951.951,0,0,1-1.021-.73q-.363-1.149-.738-2.294c-.045-.138-.117-.268-.223-.51-.312.963-.581,1.8-.852,2.628-.245.752-.448.9-1.222.9h-2.866" transform="translate(-113.855)" fill="#fff" stroke="#fff" stroke-width="1.5"/>
      <path id="Path_6802" data-name="Path 6802" d="M69.215,156.427A17.974,17.974,0,1,1,87.179,174.4a17.994,17.994,0,0,1-17.964-17.971M99.129,167.32A16.189,16.189,0,1,0,74.6,146.205c-5.808,7.227-3.9,16.639.677,21.086a13.171,13.171,0,0,1,3.433-4.446,13.446,13.446,0,0,1,5.037-2.64,7.052,7.052,0,0,1-1.616-10.911,6.974,6.974,0,0,1,10.106.007,6.706,6.706,0,0,1,1.88,5.323,6.965,6.965,0,0,1-3.52,5.563,13.383,13.383,0,0,1,8.53,7.132m-12.583,5.319a16.779,16.779,0,0,0,10.875-3.633.526.526,0,0,0,.177-.774c-2.161-4.294-5.628-6.668-10.441-6.673s-8.243,2.371-10.382,6.655a.53.53,0,0,0,.172.778,15.889,15.889,0,0,0,9.6,3.646m-4.552-18.59a5.2,5.2,0,1,0,5.237-5.157,5.206,5.206,0,0,0-5.237,5.157" transform="translate(-59.287 -118.125)" fill="#fff" stroke="#fff" stroke-width="1.5"/>
      <path id="Path_6803" data-name="Path 6803" d="M11.986,46.715c1.627-.482,3.214-.971,4.816-1.41a1.468,1.468,0,0,1,.977.084c.466.241.483.83.1,1.333-.924,1.205-1.846,2.412-2.8,3.6a.611.611,0,0,0-.039.889c.864,1.2,1.68,2.441,2.527,3.656.284.407.454.814.118,1.254s-.771.389-1.239.216c-1.422-.526-2.855-1.025-4.276-1.553a.5.5,0,0,0-.684.2C10.577,56.2,9.636,57.388,8.72,58.6c-.3.4-.656.667-1.165.485-.486-.174-.594-.587-.576-1.069.056-1.518.084-3.037.145-4.555a.528.528,0,0,0-.421-.632c-1.437-.484-2.859-1.011-4.291-1.511-.451-.157-.806-.4-.8-.916,0-.55.386-.78.864-.916,1.459-.415,2.912-.848,4.373-1.255a.532.532,0,0,0,.463-.6c.017-1.519.077-3.037.1-4.556a.952.952,0,0,1,.63-1.037c.506-.165.831.1,1.1.5.933,1.378,1.871,2.751,2.843,4.179M5.364,50.491l2.652.944c.784.28.918.5.9,1.341-.02.866,0,1.733,0,2.679.444-.578.853-1.107,1.26-1.639.961-1.256.961-1.256,2.432-.741.379.133.755.274,1.135.406.275.1.554.182.963.316-.595-.868-1.1-1.6-1.6-2.343a.985.985,0,0,1,.037-1.476c.553-.721,1.111-1.438,1.766-2.284l-2.5.735c-1.061.314-1.187.269-1.812-.646q-.685-1-1.373-2.005l-.175.043c0,.888.013,1.776,0,2.663-.015.78-.184.976-.939,1.2l-2.733.807" transform="translate(-1.611 -35.822)" fill="#fff" stroke="#fff" stroke-width="1.5"/>
      <path id="Path_6804" data-name="Path 6804" d="M272.414,50.757c-1.036-1.338-2.039-2.644-3.054-3.941-.306-.391-.5-.788-.178-1.246s.759-.419,1.231-.277c1.574.475,3.152.938,4.767,1.417l2.6-3.813q.155-.227.311-.453a.854.854,0,0,1,1.034-.413.894.894,0,0,1,.627.929c.035,1.52.1,3.04.1,4.559,0,.461.161.622.581.736,1.412.382,2.811.811,4.218,1.213.47.134.881.336.9.887.025.579-.377.81-.865.979-1.417.49-2.823,1.013-4.241,1.5a.5.5,0,0,0-.406.588c.062,1.519.091,3.039.147,4.559.018.5-.079.934-.6,1.109s-.856-.114-1.156-.513c-.9-1.2-1.835-2.377-2.736-3.579a.522.522,0,0,0-.726-.2c-1.4.53-2.822,1.012-4.23,1.53-.465.171-.9.241-1.246-.193-.366-.46-.167-.878.126-1.3.93-1.337,1.845-2.684,2.8-4.072m9.39-.269-2.631-.775c-.9-.264-1.032-.423-1.047-1.34-.015-.851,0-1.7,0-2.554l-.171-.042q-.764,1.116-1.528,2.233c-.42.611-.669.7-1.395.487-.87-.253-1.74-.508-2.764-.808.654.845,1.212,1.562,1.765,2.282a.989.989,0,0,1,.044,1.477q-.762,1.121-1.529,2.237a24.308,24.308,0,0,0,2.738-.869.952.952,0,0,1,1.209.343c.319.424.643.844.968,1.263.257.33.519.656.789,1,0-.964.009-1.86,0-2.755-.01-.7.144-.957.8-1.194.874-.316,1.751-.624,2.758-.982" transform="translate(-229.752 -35.818)" fill="#fff" stroke="#fff" stroke-width="1.5"/>
    </g>
  </g>
</svg>
