<svg xmlns="http://www.w3.org/2000/svg" width="38" height="38" viewBox="0 0 38 38">
  <g id="Group_4654" data-name="Group 4654" transform="translate(-5782.696 -902.782)">
    <rect id="Rectangle_4271" data-name="Rectangle 4271" width="38" height="38" transform="translate(5782.696 902.782)" fill="none"/>
    <g id="Group_4521" data-name="Group 4521" transform="translate(5785.668 905.678)">
      <g id="Group_4522" data-name="Group 4522" transform="translate(0 0)">
        <path id="Path_6810" data-name="Path 6810" d="M0,15.7a6.124,6.124,0,0,1,2.415-3.251c.313-.275.6-.577.9-.871A1.98,1.98,0,0,0,3.885,10.1c0-.762-.061-1.523-.062-2.285a8.117,8.117,0,0,1,.1-1.528A2.873,2.873,0,0,1,6.838,3.856c.676-.034,1.356.037,2.034.036.593,0,1.188-.019,1.779-.068a1.056,1.056,0,0,0,.561-.24c.419-.358.815-.744,1.206-1.133.563-.558,1.069-1.182,1.678-1.682A2.873,2.873,0,0,1,17.972.734,20.962,20.962,0,0,1,19.7,2.456c.293.3.583.6.878.892a1.945,1.945,0,0,0,1.451.556c.96-.007,1.92-.052,2.88-.061a4.494,4.494,0,0,1,.933.091A2.9,2.9,0,0,1,28.28,6.882c.03.666-.038,1.335-.036,2,0,.593.018,1.188.066,1.779a1.056,1.056,0,0,0,.239.562c.358.419.743.816,1.132,1.207.552.555,1.171,1.051,1.664,1.653a2.91,2.91,0,0,1-.016,4,21.841,21.841,0,0,1-1.646,1.626q-.447.437-.893.877a1.943,1.943,0,0,0-.558,1.45c0,.762.06,1.523.061,2.285a8.133,8.133,0,0,1-.1,1.528A2.882,2.882,0,0,1,25.225,28.3c-.666.026-1.335-.041-2-.041-.573,0-1.147.013-1.717.065a1.189,1.189,0,0,0-.62.259c-.414.347-.8.727-1.182,1.113-.446.454-.858.942-1.31,1.39a3.921,3.921,0,0,1-1.959,1.049h-.753A4,4,0,0,1,13.7,31.065c-.444-.441-.848-.922-1.286-1.369-.379-.386-.766-.767-1.18-1.115a1.182,1.182,0,0,0-.62-.258c-.58-.051-1.165-.063-1.747-.063-.668,0-1.337.067-2,.038A2.881,2.881,0,0,1,3.919,25.86a8.134,8.134,0,0,1-.1-1.527c0-.751.056-1.5.064-2.252a2.069,2.069,0,0,0-.614-1.556c-.282-.278-.56-.562-.858-.822A6.12,6.12,0,0,1,0,16.453Zm5.8,8.817c.026.27.045.657.1,1.037a.761.761,0,0,0,.683.679,6.48,6.48,0,0,0,1.028.076c.888-.012,1.775-.071,2.663-.068a3.253,3.253,0,0,1,2.129.711c.534.446,1.03.941,1.524,1.432.362.361.679.768,1.044,1.125.841.822,1.344.825,2.18-.009.472-.471.885-1,1.345-1.486a4.913,4.913,0,0,1,2.433-1.629,8.3,8.3,0,0,1,2.493-.13,14.028,14.028,0,0,0,1.752.033c.768-.036,1.05-.347,1.1-1.122a6.164,6.164,0,0,0,.014-.689c-.025-.553-.079-1.1-.091-1.658a5.118,5.118,0,0,1,.5-2.737A7.14,7.14,0,0,1,28.345,18.2a13.853,13.853,0,0,0,1.417-1.368.974.974,0,0,0,.009-1.509,17.039,17.039,0,0,0-1.461-1.413,4.931,4.931,0,0,1-1.987-2.975,19.264,19.264,0,0,1-.076-2.245c-.006-.584.051-1.171.02-1.753-.039-.752-.35-1.033-1.106-1.085a6.439,6.439,0,0,0-.72-.014c-.543.023-1.084.064-1.627.092A4.763,4.763,0,0,1,18.9,4.557c-.245-.257-.473-.529-.719-.785-.469-.489-.917-1-1.427-1.447a.96.96,0,0,0-1.414,0,4.944,4.944,0,0,0-.6.546c-.46.5-.882,1.035-1.362,1.513a4.492,4.492,0,0,1-2.164,1.374A8.989,8.989,0,0,1,8.688,5.9,17.083,17.083,0,0,0,6.6,5.922a.752.752,0,0,0-.7.7,2.958,2.958,0,0,0-.067.59c.02.71.055,1.419.089,2.128a4.782,4.782,0,0,1-1.411,3.933c-.25.237-.515.458-.766.694-.456.429-.936.838-1.35,1.3a1.015,1.015,0,0,0-.008,1.607,11.522,11.522,0,0,0,1.424,1.361,5.084,5.084,0,0,1,2.1,4.633c-.042.51-.071,1.021-.113,1.649" transform="translate(0 0)" fill="#10cfc9"/>
        <path id="Path_6811" data-name="Path 6811" d="M126.054,162.319c.57.345,1.131.65,1.651,1.013a1.579,1.579,0,0,1,.554.676.879.879,0,0,1-.327,1.034.928.928,0,0,1-1.112.086c-.5-.288-.982-.595-1.473-.893-.087-.053-.175-.1-.333-.193.171.376.313.683.451.993a1.006,1.006,0,1,1-1.82.838q-1.242-2.649-2.472-5.3a.979.979,0,0,1,.506-1.407,10.917,10.917,0,0,1,1.963-.793,2.253,2.253,0,0,1,2.468,1.039,2.412,2.412,0,0,1,.078,2.692c-.035.063-.075.123-.136.221m-2.247-.854c.307-.15.683-.185.718-.583a.623.623,0,0,0-.2-.475c-.336-.256-.615.033-.931.163l.416.895" transform="translate(-110.905 -145.034)" fill="#10cfc9"/>
        <path id="Path_6812" data-name="Path 6812" d="M188.507,129.552l.42.9c.294-.135.574-.266.857-.391a1.005,1.005,0,1,1,.863,1.814c-.278.14-.562.266-.854.4.039.1.066.175.1.249.1.207.194.413.308.652l.83-.377a1.008,1.008,0,1,1,.854,1.819q-.847.4-1.7.788a.981.981,0,0,1-1.388-.5q-1.265-2.69-2.511-5.389a1,1,0,0,1,.51-1.388q.86-.413,1.73-.806a1,1,0,1,1,.867,1.8c-.278.142-.564.267-.881.417" transform="translate(-170.567 -116.569)" fill="#10cfc9"/>
        <path id="Path_6813" data-name="Path 6813" d="M244.027,106.894l.423.9c.29-.133.562-.261.835-.384a1,1,0,1,1,.863,1.807q-.858.415-1.729.806a.989.989,0,0,1-1.384-.514q-1.256-2.674-2.5-5.355a.992.992,0,0,1,.509-1.41q.86-.413,1.729-.8a1,1,0,1,1,.854,1.812c-.278.138-.561.266-.873.413l.42.9c.307-.142.587-.276.871-.4a1,1,0,1,1,.854,1.813c-.278.14-.564.267-.875.413" transform="translate(-220.267 -93.299)" fill="#10cfc9"/>
        <path id="Path_6814" data-name="Path 6814" d="M69.1,185.212l.427.9c.3-.139.569-.268.843-.392a1,1,0,1,1,.869,1.8c-.278.14-.562.268-.864.412.271.583.547,1.142.79,1.716a1.466,1.466,0,0,1,.123.66.945.945,0,0,1-.742.831,1.019,1.019,0,0,1-1.086-.45,2.145,2.145,0,0,1-.13-.249q-1.2-2.579-2.4-5.159a1.015,1.015,0,0,1,.551-1.535c.538-.253,1.075-.507,1.616-.753a1,1,0,1,1,.859,1.811c-.27.132-.544.255-.849.4" transform="translate(-61.165 -167.558)" fill="#10cfc9"/>
      </g>
    </g>
  </g>
</svg>
