<svg xmlns="http://www.w3.org/2000/svg" width="20" height="20" viewBox="0 0 20 20">
  <g id="Group_4801" data-name="Group 4801" transform="translate(-0.785 0.44)">
    <g id="Group_142" data-name="Group 142" transform="translate(1.786 1.56)">
      <g id="Group_95" data-name="Group 95" transform="translate(0 0)">
        <path id="Path_46" data-name="Path 46" d="M0,5.013C.059,4.662.093,4.3.183,3.96A4.9,4.9,0,0,1,3.529.256,4.588,4.588,0,0,1,8.546,1.61c.165.174.311.365.475.558.157-.187.3-.375.466-.549A4.6,4.6,0,0,1,12.314.067,4.708,4.708,0,0,1,16.726,1.73a5.579,5.579,0,0,1,1.226,4.681,6.582,6.582,0,0,1-1.328,2.936,20,20,0,0,1-2.992,3.074q-1.913,1.665-3.841,3.315a1.051,1.051,0,0,1-1.5.033c-1.672-1.45-3.348-2.9-5-4.369A12.609,12.609,0,0,1,1.088,8.872,6.328,6.328,0,0,1,.026,5.942.934.934,0,0,0,0,5.824V5.013M9.015,15c.046-.036.083-.063.118-.093,1.426-1.233,2.861-2.455,4.274-3.7a14.888,14.888,0,0,0,2.658-2.9,5,5,0,0,0,.881-3.471A4.1,4.1,0,0,0,14.97,1.609a3.583,3.583,0,0,0-3.535-.171A4.326,4.326,0,0,0,9.757,2.983c-.063.092-.12.188-.185.278a.661.661,0,0,1-1.1,0A11.234,11.234,0,0,0,7.685,2.25,3.5,3.5,0,0,0,4.229,1.156,3.776,3.776,0,0,0,1.342,3.772,4.928,4.928,0,0,0,1.975,8.3a12.107,12.107,0,0,0,2.052,2.336c1.279,1.151,2.582,2.273,3.878,3.4.365.32.737.634,1.11.955" transform="translate(0 0)" fill="#10cfc9"/>
      </g>
    </g>
    <rect id="Rectangle_4305" data-name="Rectangle 4305" width="20" height="20" transform="translate(0.785 -0.44)" fill="none"/>
  </g>
</svg>
