<svg xmlns="http://www.w3.org/2000/svg" width="64" height="64" viewBox="0 0 64 64">
  <g id="Group_4849" data-name="Group 4849" transform="translate(-2909 -831.823)">
    <rect id="Rectangle_4239" data-name="Rectangle 4239" width="64" height="64" transform="translate(2909 831.823)" fill="none"/>
    <g id="Group_4718" data-name="Group 4718" transform="translate(2916.993 842.481)">
      <g id="Group_4719" data-name="Group 4719" transform="translate(0 0)">
        <path id="Path_144" data-name="Path 144" d="M42.551,11.492c.4-.233.744-.441,1.095-.628a1.6,1.6,0,0,1,1.616,2.764c-.534.338-1.088.642-1.665.979a1.632,1.632,0,0,0,.714,1.168,7.874,7.874,0,0,1,3.46,4.96c-.285-.209-.48-.356-.68-.5a13.3,13.3,0,0,0-7.838-2.558q-15.53-.008-31.06,0a4.787,4.787,0,0,0-4.827,3.651,4.39,4.39,0,0,0-.143,1.039c-.011,3.281-.02,6.561,0,9.84A3.187,3.187,0,0,0,6,35.328a3.15,3.15,0,0,0,3.433-2.222A7.248,7.248,0,0,0,9.6,31.42a1.609,1.609,0,0,1,1.655-1.689q7.067-.01,14.133,0c.08,0,.161.011.241.017v3.167H12.794c-.041.155-.076.262-.1.371A6.386,6.386,0,0,1,.022,32.21C0,28.93-.021,25.649.032,22.37a7.737,7.737,0,0,1,3.6-6.576,1.389,1.389,0,0,0,.705-1.121c-.576-.337-1.185-.676-1.776-1.042a1.562,1.562,0,0,1-.751-1.674A1.471,1.471,0,0,1,3.067,10.7a2.576,2.576,0,0,1,1.144.2A9.226,9.226,0,0,1,5.4,11.57c.074-.2.145-.377.2-.557Q6.659,7.828,7.714,4.641A6.408,6.408,0,0,1,14.1,0Q23.99,0,33.877,0a6.4,6.4,0,0,1,6.389,4.64q1.05,3.161,2.1,6.324c.052.156.111.309.188.526m-2.444,2.957a1.914,1.914,0,0,0-.041-.24c-.975-2.947-1.938-5.9-2.938-8.837a3.139,3.139,0,0,0-3.155-2.156q-9.982,0-19.966,0a3.174,3.174,0,0,0-3.222,2.342Q9.365,9.809,7.963,14.064a3.791,3.791,0,0,0-.085.385Z" transform="translate(0 -0.001)" fill="#fafafa"/>
        <path id="Path_145" data-name="Path 145" d="M27.723,27.791c0-.77-.024-1.54.006-2.308a3.136,3.136,0,0,1,2.054-3c1.817-.73,3.663-1.392,5.5-2.074a3.156,3.156,0,0,1,2.258.009c1.808.672,3.616,1.342,5.414,2.04a3.216,3.216,0,0,1,2.11,3.1c-.006,1.726.063,3.461-.093,5.176a8.119,8.119,0,0,1-3.582,6.042c-1.329.946-2.709,1.82-4.066,2.727a1.534,1.534,0,0,1-1.847.005c-1.343-.9-2.709-1.767-4.026-2.7a8.508,8.508,0,0,1-3.728-7.136c-.012-.629,0-1.256,0-1.885m14.26.111h.071c0-.707-.017-1.414.008-2.12a.556.556,0,0,0-.436-.617c-1.649-.605-3.289-1.232-4.939-1.833a.909.909,0,0,0-.578,0c-1.649.6-3.288,1.235-4.938,1.834a.582.582,0,0,0-.437.662c.016,1.287-.009,2.576.01,3.863a5.53,5.53,0,0,0,2.468,4.678c.952.667,1.933,1.288,2.892,1.944a.445.445,0,0,0,.586,0c.972-.665,1.967-1.294,2.931-1.97a5.272,5.272,0,0,0,2.344-3.812,23.141,23.141,0,0,0,.018-2.631" transform="translate(2.882 2.512)" fill="#fafafa"/>
        <path id="Path_146" data-name="Path 146" d="M11.28,23.98c-.5,0-1.005.01-1.508,0a1.505,1.505,0,1,1,0-3.01c1.005-.014,2.011-.016,3.016,0a1.5,1.5,0,0,1,0,3.008c-.5.014-1.005,0-1.508,0" transform="translate(0.628 1.504)" fill="#fafafa"/>
      </g>
    </g>
  </g>
</svg>
