<svg xmlns="http://www.w3.org/2000/svg" xmlns:xlink="http://www.w3.org/1999/xlink" width="64" height="64" viewBox="0 0 64 64">
  <defs>
    <clipPath id="clip-path">
      <rect id="Rectangle_4221" data-name="Rectangle 4221" width="38.428" height="44.835" fill="#fff"/>
    </clipPath>
  </defs>
  <g id="Group_4847" data-name="Group 4847" transform="translate(-925 -846.607)">
    <rect id="Rectangle_4101" data-name="Rectangle 4101" width="64" height="64" transform="translate(925 846.607)" fill="none"/>
    <g id="Group_4691" data-name="Group 4691" transform="translate(938.45 855.79)">
      <g id="Group_4690" data-name="Group 4690" transform="translate(0 0)" clip-path="url(#clip-path)">
        <path id="Path_80" data-name="Path 80" d="M38.426,22.461q0,8.73,0,17.459a4.73,4.73,0,0,1-3.558,4.736,5.521,5.521,0,0,1-1.383.169q-14.256.014-28.514,0A4.791,4.791,0,0,1,0,39.882Q-.005,22.423,0,4.964A4.8,4.8,0,0,1,4.957,0Q19.214,0,33.471,0a4.772,4.772,0,0,1,4.953,4.949q.013,8.754,0,17.509m-3.2-.046V5.1c0-1.3-.594-1.9-1.886-1.9q-14.134,0-28.267,0A1.647,1.647,0,0,0,3.206,5.083q0,17.336,0,34.671a1.646,1.646,0,0,0,1.869,1.874H33.343c1.293,0,1.883-.6,1.883-1.9V22.415" transform="translate(0 0)" fill="#fff"/>
        <path id="Path_81" data-name="Path 81" d="M18.421,22.665q-2.7,0-5.4,0a1.61,1.61,0,1,1,.007-3.2q5.427,0,10.854,0a1.607,1.607,0,1,1-.007,3.2q-2.727,0-5.452,0" transform="translate(0.78 1.351)" fill="#fff"/>
        <path id="Path_82" data-name="Path 82" d="M18.377,31.648q-2.674,0-5.349,0a1.61,1.61,0,1,1,0-3.2q5.424,0,10.848,0a1.607,1.607,0,1,1,0,3.2q-2.749,0-5.5,0" transform="translate(0.78 1.975)" fill="#fff"/>
        <path id="Path_83" data-name="Path 83" d="M18.427,10.484q2.724,0,5.449,0a1.606,1.606,0,1,1,0,3.2q-5.448,0-10.9,0a1.6,1.6,0,1,1,0-3.2q2.724,0,5.449,0" transform="translate(0.78 0.728)" fill="#fff"/>
      </g>
    </g>
  </g>
</svg>
