<svg xmlns="http://www.w3.org/2000/svg" width="64" height="64" viewBox="0 0 64 64">
  <g id="Group_4846" data-name="Group 4846" transform="translate(-1230 -911)">
    <g id="Group_4704" data-name="Group 4704" transform="translate(1240.159 920.143)">
      <g id="Group_4706" data-name="Group 4706" transform="translate(0 0)">
        <path id="Path_100" data-name="Path 100" d="M31.977,22.755H9.39a1.567,1.567,0,0,1-1.569-1.569V16.361a3,3,0,0,1,3-3H30.542a3,3,0,0,1,3,3v4.825A1.569,1.569,0,0,1,31.977,22.755Z" transform="translate(10.645 19.386)" fill="none" stroke="#fff" stroke-width="2.7"/>
        <line id="Line_4" data-name="Line 4" x2="6.003" transform="translate(28.397 37.858)" fill="none" stroke="#fff" stroke-linecap="round" stroke-linejoin="round" stroke-width="2.7"/>
        <path id="Path_101" data-name="Path 101" d="M8.5,17.454,10.96,11.7a1.6,1.6,0,0,1,1.5-1.032h14.96a1.6,1.6,0,0,1,1.5,1.049l2.3,6.026" transform="translate(11.683 15.185)" fill="none" stroke="#fff" stroke-linecap="round" stroke-linejoin="round" stroke-width="2.7"/>
        <path id="Path_102" data-name="Path 102" d="M13.072,18.256V19.9a1.93,1.93,0,0,1-1.93,1.93H9.751a1.93,1.93,0,0,1-1.93-1.93V16.314" transform="translate(10.645 23.884)" fill="none" stroke="#fff" stroke-linecap="round" stroke-linejoin="round" stroke-width="2.7"/>
        <path id="Path_103" data-name="Path 103" d="M15.937,18.507v1.645a1.93,1.93,0,0,0,1.93,1.93h1.392a1.93,1.93,0,0,0,1.93-1.93v-4" transform="translate(23 23.633)" fill="none" stroke="#fff" stroke-linecap="round" stroke-linejoin="round" stroke-width="2.7"/>
        <path id="Path_104" data-name="Path 104" d="M11.512,2.346h4.419a4.775,4.775,0,0,1,4.775,4.775v10.3" transform="translate(16.263 2.311)" fill="none" stroke="#fff" stroke-linecap="round" stroke-linejoin="round" stroke-width="2.7"/>
        <path id="Path_105" data-name="Path 105" d="M12.415,39.625H5.275A4.793,4.793,0,0,1,.5,34.81V7.161A4.793,4.793,0,0,1,5.275,2.346H9.653" transform="translate(-0.5 2.311)" fill="none" stroke="#fff" stroke-linecap="round" stroke-linejoin="round" stroke-width="2.7"/>
        <rect id="Rectangle_4234" data-name="Rectangle 4234" width="18.622" height="9.312" rx="0.75" transform="translate(9.154)" fill="none" stroke="#fff" stroke-linecap="round" stroke-linejoin="round" stroke-width="2.7"/>
        <path id="Path_106" data-name="Path 106" d="M3.879,9.868l1.776,1.6,4.538-4.084" transform="translate(4.644 10.109)" fill="none" stroke="#fff" stroke-linecap="round" stroke-linejoin="round" stroke-width="2.7"/>
        <path id="Path_107" data-name="Path 107" d="M3.879,13.651l1.776,1.6,4.538-4.084" transform="translate(4.644 15.941)" fill="none" stroke="#fff" stroke-linecap="round" stroke-linejoin="round" stroke-width="2.7"/>
      </g>
    </g>
    <rect id="Rectangle_4101" data-name="Rectangle 4101" width="64" height="64" transform="translate(1230 911)" fill="none"/>
  </g>
</svg>
