<svg xmlns="http://www.w3.org/2000/svg" xmlns:xlink="http://www.w3.org/1999/xlink" width="64" height="64" viewBox="0 0 64 64">
  <defs>
    <clipPath id="clip-path">
      <rect id="Rectangle_4246" data-name="Rectangle 4246" width="18.426" height="16.028" fill="#fff"/>
    </clipPath>
  </defs>
  <g id="Group_4850" data-name="Group 4850" transform="translate(-820 -871)">
    <rect id="Rectangle_4101" data-name="Rectangle 4101" width="64" height="64" transform="translate(820 871)" fill="none"/>
    <g id="Group_4741" data-name="Group 4741" transform="translate(-2.056 0.174)">
      <g id="Group_4697" data-name="Group 4697" transform="translate(829.842 880.826)">
        <g id="Group_4740" data-name="Group 4740" transform="translate(0 0)">
          <path id="Path_90" data-name="Path 90" d="M42.9,22.319c-1.075,0-2.117.01-3.159,0a1.59,1.59,0,0,1-.06-3.178c.846-.018,1.692,0,2.538,0H42.7C42.3,11.077,35.271,3.98,26.99,3.41c0,.978.008,1.952,0,2.927a1.57,1.57,0,0,1-2.18,1.546,1.477,1.477,0,0,1-1-1.5c-.01-.977,0-1.953,0-3.013a16.626,16.626,0,0,0-10,4.315A17.512,17.512,0,0,0,8.032,19.133c1.059,0,2.051-.01,3.042,0a1.589,1.589,0,0,1,.024,3.178c-.993.017-1.986,0-3.035,0,.049.477.1.914.134,1.35a1.621,1.621,0,0,1-1.4,1.844,1.668,1.668,0,0,1-1.816-1.566,19.563,19.563,0,0,1,.56-9.056C7.776,7.755,12.467,2.957,19.641.855A20.5,20.5,0,0,1,44.768,13.433,20.655,20.655,0,0,1,29.693,41a4.184,4.184,0,0,1-1.032.111,1.541,1.541,0,0,1-1.536-1.469,1.613,1.613,0,0,1,1.307-1.7A17.628,17.628,0,0,0,33.064,36.5,17.1,17.1,0,0,0,42.9,22.547c.006-.049,0-.1,0-.228" transform="translate(-1.479 0)" fill="#fff"/>
          <path id="Path_93" data-name="Path 93" d="M32.6,21.832c0-1.277,0-2.552,0-3.829A1.594,1.594,0,1,1,35.779,18c.005,2.222.011,4.442-.007,6.663a1.189,1.189,0,0,0,.384.953c1.316,1.285,2.613,2.59,3.9,3.9a1.575,1.575,0,0,1-1.255,2.7,1.924,1.924,0,0,1-.948-.473c-1.613-1.573-3.215-3.16-4.773-4.788a1.979,1.979,0,0,1-.465-1.2c-.058-1.307-.022-2.618-.022-3.927" transform="translate(-10.27 -5.14)" fill="#fff"/>
        </g>
      </g>
      <g id="Group_4739" data-name="Group 4739" transform="translate(833.574 909.375)">
        <g id="Group_4738" data-name="Group 4738" transform="translate(0 0)" clip-path="url(#clip-path)">
          <path id="Path_148" data-name="Path 148" d="M8.394,13.156c1.267,0,2.517-.009,3.766,0a1.431,1.431,0,0,1,1.468,1.69A1.4,1.4,0,0,1,12.251,16c-2.156.011-4.312.007-6.466,0a1.535,1.535,0,0,1-1.258-2.545C5.721,11.821,6.935,10.2,8.122,8.551c.546-.757,1.056-1.539,1.559-2.325a4.629,4.629,0,0,0,.418-.9,1.788,1.788,0,0,0-1.12-2.371A1.887,1.887,0,0,0,6.592,4.109c-.027.075-.05.151-.073.226A1.42,1.42,0,0,1,4.777,5.462,1.447,1.447,0,0,1,3.766,3.6a4.739,4.739,0,0,1,9.2-.009,4.388,4.388,0,0,1-.329,3.055,21.089,21.089,0,0,1-1.447,2.5c-.894,1.324-1.854,2.6-2.787,3.905-.007.009,0,.03-.007.1" transform="translate(4.774 0.001)" fill="#fff"/>
          <path id="Path_149" data-name="Path 149" d="M2.766,2.958c-.5,0-.926.011-1.354,0A1.417,1.417,0,0,1,0,1.621,1.351,1.351,0,0,1,1.2.153,25.45,25.45,0,0,1,4.385.146,1.335,1.335,0,0,1,5.606,1.454c.014.158.011.318.011.476V14.1a4.244,4.244,0,0,1-.025.567,1.412,1.412,0,0,1-2.8,0,4.631,4.631,0,0,1-.025-.617V2.958Z" transform="translate(0.001 0.129)" fill="#fff"/>
        </g>
      </g>
    </g>
  </g>
</svg>
