<svg xmlns="http://www.w3.org/2000/svg" xmlns:xlink="http://www.w3.org/1999/xlink" width="64" height="64" viewBox="0 0 64 64">
  <defs>
    <clipPath id="clip-path">
      <rect id="Rectangle_4240" data-name="Rectangle 4240" width="48" height="43.132" fill="#fff" stroke="#fafafa" stroke-width="0.3"/>
    </clipPath>
  </defs>
  <g id="Group_4848" data-name="Group 4848" transform="translate(-545 -920)">
    <rect id="Rectangle_4241" data-name="Rectangle 4241" width="64" height="64" transform="translate(545 920)" fill="none"/>
    <g id="Group_4722" data-name="Group 4722" transform="translate(553 930.667)">
      <g id="Group_4721" data-name="Group 4721" transform="translate(0 0)" clip-path="url(#clip-path)">
        <path id="Path_147" data-name="Path 147" d="M48,24.468a1.462,1.462,0,0,1-1.488,1.044c-.638.028-1.276.1-1.91.188a.543.543,0,0,0-.345.284c-.352.78-.666,1.577-1.022,2.355a.526.526,0,0,0,.073.665c.446.5.869,1.023,1.288,1.548a1.262,1.262,0,0,1-.1,1.912q-1.5,1.518-3.014,3.016a1.257,1.257,0,0,1-1.877.1c-.549-.439-1.074-.908-1.631-1.336a.573.573,0,0,0-.475-.067c-.8.309-1.576.671-2.378.97a.562.562,0,0,0-.427.569c-.042.654-.113,1.306-.18,1.958a1.282,1.282,0,0,1-1.476,1.324c-1.093,0-2.187,0-3.28,0h-.513c0,.922.008,1.807-.006,2.692a1.907,1.907,0,0,1-.128.726,1.2,1.2,0,0,1-1.35.691,1.267,1.267,0,0,1-.95-1.287q-.006-4.709,0-9.419v-.573c-.187-.011-.324-.027-.46-.027-2.64,0-5.28.005-7.919-.009a.49.49,0,0,0-.556.4A6.347,6.347,0,0,1,5.849,32.17c-.123-.365-.32-.375-.618-.377A5.016,5.016,0,0,1,.162,27.956a4.285,4.285,0,0,1-.141-.97C0,25.831-.014,24.675.018,23.52a5.038,5.038,0,0,1,3.876-4.864c2.615-.723,5.236-1.425,7.848-2.158a1.356,1.356,0,0,0,.665-.441c1.692-2.184,3.325-4.417,5.055-6.57a5.784,5.784,0,0,1,4.5-2.166c1.42-.043,2.843-.013,4.263-.017h.584V6.784q0-2.695,0-5.388a1.229,1.229,0,1,1,2.436,0c0,1.138,0,2.276,0,3.474h1.987c.641,0,1.281-.008,1.922,0a1.235,1.235,0,0,1,1.357,1.241c.071.683.138,1.367.189,2.052a.509.509,0,0,0,.38.5c.813.314,1.6.682,2.417,1a.584.584,0,0,0,.478-.079c.545-.418,1.062-.873,1.6-1.3a1.257,1.257,0,0,1,1.911.089q1.512,1.5,3,3.033a1.258,1.258,0,0,1,.085,1.878c-.5.621-1.013,1.228-1.476,1.787.4.986.762,1.927,1.157,2.856a.548.548,0,0,0,.386.238c.634.082,1.272.158,1.91.183A1.517,1.517,0,0,1,48,19.312ZM26.789,9.749c-1.445,0-2.849.023-4.252-.006a4.143,4.143,0,0,0-3.612,1.788c-1.607,2.151-3.255,4.272-4.876,6.415a2.056,2.056,0,0,1-1.172.791c-1.177.306-2.349.632-3.522.952-1.61.438-3.22.872-4.829,1.316a2.61,2.61,0,0,0-2.071,2.415c-.031,1.155-.039,2.313,0,3.468a2.559,2.559,0,0,0,3.07,2.41,6.448,6.448,0,0,1,6.256-5.535,6.23,6.23,0,0,1,3.775,1.192,6.38,6.38,0,0,1,2.63,4.368h8.6Zm13.59,1.025c-.511.423-1,.833-1.5,1.24a1.434,1.434,0,0,1-1.953.172,30.562,30.562,0,0,0-3.214-1.367c-1.024-.362-1.271-.582-1.362-1.674-.051-.6-.118-1.2-.178-1.806h-2.9v6.84a7.907,7.907,0,1,1,0,15.465v6.886h2.913c.062-.68.115-1.346.185-2.012.1-.929.339-1.213,1.25-1.449a11.708,11.708,0,0,0,3.223-1.346c.949-.583,1.26-.547,2.132.17.477.392.957.78,1.378,1.125L42.072,31.3c-.418-.506-.869-1.043-1.31-1.589a1.269,1.269,0,0,1-.142-1.676,13,13,0,0,0,1.53-3.6c.2-.772.549-1.021,1.368-1.1.677-.065,1.352-.14,2.026-.209V20.7c-.7-.067-1.378-.122-2.058-.2-.905-.107-1.187-.349-1.415-1.23A12,12,0,0,0,40.68,15.96c-.532-.866-.49-1.216.171-2.016.413-.5.823-1,1.208-1.471l-1.679-1.7M29.247,21.893c0,1.607.006,3.214-.006,4.82,0,.284.078.409.361.475a5.713,5.713,0,0,0,2.684,0A5.441,5.441,0,0,0,29.651,16.63a.454.454,0,0,0-.413.536c.02,1.575.009,3.151.009,4.727M15.781,30.15a3.922,3.922,0,1,0-3.929,3.929,3.93,3.93,0,0,0,3.929-3.929" transform="translate(0 0)" fill="#fff" stroke="#fafafa" stroke-width="0.3"/>
      </g>
    </g>
  </g>
</svg>
