<svg xmlns="http://www.w3.org/2000/svg" width="16" height="16" viewBox="0 0 16 16">
  <g id="Group_4614" data-name="Group 4614" transform="translate(-190 -1152)">
    <g id="Group_4617" data-name="Group 4617">
      <rect id="Rectangle_4371" data-name="Rectangle 4371" width="16" height="16" transform="translate(190 1152)" fill="none"/>
      <g id="Group_4608" data-name="Group 4608" transform="translate(192 1156)">
        <g id="Group_4609" data-name="Group 4609" transform="translate(0 0)">
          <path id="Path_6833" data-name="Path 6833" d="M6,8.773H1.354a.917.917,0,0,1-.98-.683,6,6,0,1,1,11.218.086.9.9,0,0,1-.881.6H6m-.011-.924q2.306,0,4.614,0a.153.153,0,0,0,.175-.119,5.02,5.02,0,0,0,.135-3.006A5.077,5.077,0,1,0,1.217,7.72a.171.171,0,0,0,.2.131q2.286,0,4.571,0" transform="translate(0.001 0)" fill="#7c868d"/>
          <path id="Path_6834" data-name="Path 6834" d="M5.7,6.61a.894.894,0,1,1,.135-1.777A.223.223,0,0,0,6,4.783c.235-.225.462-.459.693-.687a.448.448,0,1,1,.627.633c-.229.231-.462.458-.687.692a.211.211,0,0,0-.05.153A.9.9,0,0,1,5.7,6.61" transform="translate(0.324 0.287)" fill="#7c868d"/>
          <path id="Path_6835" data-name="Path 6835" d="M5.241,1.976c0-.079,0-.158,0-.237a.444.444,0,0,1,.888-.008c.008.166.008.335,0,.5a.443.443,0,0,1-.454.419.448.448,0,0,1-.434-.425c-.005-.083,0-.166,0-.25" transform="translate(0.313 0.083)" fill="#7c868d"/>
          <path id="Path_6836" data-name="Path 6836" d="M1.986,5.245c.079,0,.158,0,.237,0a.444.444,0,0,1,.006.888c-.168.008-.335.008-.5,0a.444.444,0,0,1,.008-.888c.083-.005.166,0,.25,0" transform="translate(0.029 0.319)" fill="#7c868d"/>
          <path id="Path_6837" data-name="Path 6837" d="M9.4,6.135c-.084,0-.168.005-.25,0a.447.447,0,0,1-.413-.446.442.442,0,0,1,.416-.441c.166-.008.334-.007.5,0a.445.445,0,0,1,0,.889c-.083,0-.166,0-.25,0" transform="translate(0.589 0.319)" fill="#7c868d"/>
          <path id="Path_6838" data-name="Path 6838" d="M8.4,2.516a.475.475,0,0,1,.408.276.415.415,0,0,1-.061.47,3.914,3.914,0,0,1-.374.374.442.442,0,0,1-.637-.6,3.345,3.345,0,0,1,.4-.4.966.966,0,0,1,.26-.112" transform="translate(0.466 0.158)" fill="#7c868d"/>
          <path id="Path_6839" data-name="Path 6839" d="M2.774,2.537a1.052,1.052,0,0,1,.83.74.421.421,0,0,1-.247.417.412.412,0,0,1-.48-.06A3.8,3.8,0,0,1,2.5,3.258a.408.408,0,0,1-.058-.469.4.4,0,0,1,.328-.252" transform="translate(0.146 0.159)" fill="#7c868d"/>
        </g>
      </g>
    </g>
  </g>
</svg>
