<svg xmlns="http://www.w3.org/2000/svg" width="24" height="24" viewBox="0 0 24 24">
  <g id="Group_80" data-name="Group 80" transform="translate(54 -2149)">
    <rect id="Rectangle_4109" data-name="Rectangle 4109" width="24" height="24" transform="translate(-54 2149)" fill="none"/>
    <g id="Group_71" data-name="Group 71" transform="translate(-47 2154)">
      <g id="Group_79" data-name="Group 79" transform="translate(0 0)">
        <path id="Path_37" data-name="Path 37" d="M4.582,14a1.445,1.445,0,0,1-.222-.246Q2.476,10.362.6,6.965a4.485,4.485,0,0,1-.57-2.747A4.492,4.492,0,0,1,2.621.507,4.445,4.445,0,0,1,7.25.816a4.468,4.468,0,0,1,2.026,3.24,4.541,4.541,0,0,1-.545,2.9q-1.878,3.4-3.764,6.8A1.447,1.447,0,0,1,4.745,14Zm.1-11.651A2.33,2.33,0,1,0,6.99,4.7,2.333,2.333,0,0,0,4.678,2.348" transform="translate(0 0)" fill="#10cfc9"/>
      </g>
    </g>
  </g>
</svg>
