<svg xmlns="http://www.w3.org/2000/svg" width="14" height="14" viewBox="0 0 14 14">
  <g id="Group_4888" data-name="Group 4888" transform="translate(-815 -509.324)">
    <g id="Group_4890" data-name="Group 4890">
      <g id="Group_4886" data-name="Group 4886" transform="translate(816 510.324)">
        <g id="Group_4889" data-name="Group 4889" transform="translate(0 0)">
          <path id="Path_6851" data-name="Path 6851" d="M0,6a6,6,0,1,1,6,6A6,6,0,0,1,0,6M7.46,9.126a1.593,1.593,0,0,0,1.591-.771.36.36,0,0,0-.029-.467c-.345-.364-.7-.725-1.053-1.077A.34.34,0,0,0,7.464,6.8c-.184.153-.359.316-.544.468a.164.164,0,0,1-.141.029A4.712,4.712,0,0,1,4.691,5.238c-.038-.071-.014-.108.03-.157.162-.182.325-.364.481-.552a.341.341,0,0,0-.007-.505c-.353-.357-.714-.707-1.077-1.053A.33.33,0,0,0,3.725,2.9a1.382,1.382,0,0,0-.69.693,2.261,2.261,0,0,0-.145,1.049A3.138,3.138,0,0,0,3.393,6,9.072,9.072,0,0,0,4.719,7.567,6.614,6.614,0,0,0,6.061,8.653a2.911,2.911,0,0,0,1.4.472" transform="translate(0 0)"/>
        </g>
      </g>
      <rect id="Rectangle_5641" data-name="Rectangle 5641" width="14" height="14" transform="translate(815 509.324)" fill="none"/>
    </g>
  </g>
</svg>
