<svg xmlns="http://www.w3.org/2000/svg" width="24" height="24" viewBox="0 0 24 24">
  <g id="Group_82" data-name="Group 82" transform="translate(54 -2179)">
    <rect id="Rectangle_4111" data-name="Rectangle 4111" width="24" height="24" transform="translate(-54 2179)" fill="none"/>
    <g id="Group_74" data-name="Group 74" transform="translate(-51 2187)">
      <g id="Group_81" data-name="Group 81" transform="translate(0 0)">
        <path id="Path_38" data-name="Path 38" d="M16.686,7.138a2.3,2.3,0,1,0-4.515,0H6.4a2.281,2.281,0,0,0-.723-2.112,2.23,2.23,0,0,0-1.652-.59,2.308,2.308,0,0,0-2.141,2.7A1.593,1.593,0,0,1,0,5.515c0-.494,0-.988,0-1.481A1.284,1.284,0,0,1,1.324,2.718c.339,0,.678,0,1.017,0A.312.312,0,0,0,2.615,2.6c.54-.642,1.1-1.27,1.629-1.918A1.767,1.767,0,0,1,5.72,0c1.3.015,2.606.009,3.909,0a1.747,1.747,0,0,1,1.179.423c.783.658,1.583,1.3,2.356,1.967a1.832,1.832,0,0,0,.948.432c.938.155,1.872.333,2.807.5A1.274,1.274,0,0,1,18,4.6c0,.428.007.857,0,1.285a1.285,1.285,0,0,1-1.15,1.249,1.473,1.473,0,0,1-.157,0M9.738,2.718v.006H11.72c.119,0,.232-.006.277-.14s-.027-.213-.122-.288c-.6-.474-1.2-.953-1.812-1.42A.618.618,0,0,0,9.72.759c-.649-.011-1.3-.006-1.946,0a.439.439,0,0,0-.489.5c0,.315,0,.631,0,.946,0,.355.157.516.507.517.649,0,1.3,0,1.946,0m-4.824,0c.309,0,.618,0,.927,0a.418.418,0,0,0,.44-.419q.012-.561,0-1.123A.418.418,0,0,0,5.859.756a1.9,1.9,0,0,0-.444,0,.7.7,0,0,0-.371.17c-.41.454-.8.922-1.193,1.395A.306.306,0,0,0,3.8,2.59a.328.328,0,0,0,.245.121c.29.015.582.006.873.005m3.226.716c-.1,0-.2-.006-.3,0a.427.427,0,0,0-.409.431.423.423,0,0,0,.4.419,6.065,6.065,0,0,0,.622,0,.423.423,0,0,0,.4-.421.428.428,0,0,0-.412-.429c-.1-.006-.2,0-.3,0" transform="translate(0 0)" fill="#10cfc9"/>
        <path id="Path_39" data-name="Path 39" d="M11.875,19.21a1.856,1.856,0,1,1-1.86-1.862,1.859,1.859,0,0,1,1.86,1.862m-1-.009a.856.856,0,1,0-.843.86.859.859,0,0,0,.843-.86" transform="translate(-5.875 -12.488)" fill="#10cfc9"/>
        <path id="Path_40" data-name="Path 40" d="M46.721,21.061a1.856,1.856,0,1,1,1.86-1.843,1.858,1.858,0,0,1-1.86,1.843m.86-1.847a.856.856,0,1,0-.855.847.859.859,0,0,0,.855-.847" transform="translate(-32.299 -12.489)" fill="#10cfc9"/>
      </g>
    </g>
  </g>
</svg>
