<svg xmlns="http://www.w3.org/2000/svg" width="24" height="24" viewBox="0 0 24 24">
  <g id="Group_78" data-name="Group 78" transform="translate(54 -2119)">
    <g id="Group_68" data-name="Group 68" transform="translate(-51 2124)">
      <g id="Group_77" data-name="Group 77" transform="translate(0 0)">
        <path id="Path_30" data-name="Path 30" d="M8.994,13.159H2.008a1.369,1.369,0,0,1-1.442-1,9,9,0,1,1,16.822.11,1.345,1.345,0,0,1-1.323.894q-3.536,0-7.072,0m-.01-1.385c2.293,0,4.585,0,6.878,0a.28.28,0,0,0,.318-.227A7.629,7.629,0,0,0,7.529,1.529,7.644,7.644,0,0,0,1.82,11.566a.271.271,0,0,0,.307.213q3.429-.01,6.857,0" transform="translate(0 0)" fill="#10cfc9"/>
        <path id="Path_31" data-name="Path 31" d="M12.891,10.76c.272.149.435-.085.621-.275q.432-.439.871-.871a.693.693,0,1,1,.979.975c-.353.359-.717.71-1.065,1.074a.376.376,0,0,0-.092.273,1.388,1.388,0,1,1-1.314-1.175" transform="translate(-3.832 -3.139)" fill="#10cfc9"/>
        <path id="Path_32" data-name="Path 32" d="M13.866,4.174c0,.13.007.26,0,.389a.69.69,0,0,1-1.376,0c-.013-.259-.013-.519,0-.778a.685.685,0,0,1,.678-.653.7.7,0,0,1,.7.655c.007.129,0,.259,0,.389" transform="translate(-4.178 -1.048)" fill="#10cfc9"/>
        <path id="Path_33" data-name="Path 33" d="M4.153,12.5c.13,0,.26-.006.389,0a.69.69,0,0,1,0,1.379c-.252.011-.5.01-.757,0a.691.691,0,0,1,0-1.38c.122-.006.245,0,.367,0" transform="translate(-1.045 -4.183)" fill="#10cfc9"/>
        <path id="Path_34" data-name="Path 34" d="M21.848,12.5c.122,0,.245,0,.367,0a.691.691,0,0,1,.015,1.38c-.252.011-.5.01-.756,0a.691.691,0,0,1,.007-1.38c.122-.005.245,0,.367,0" transform="translate(-6.968 -4.183)" fill="#10cfc9"/>
        <path id="Path_35" data-name="Path 35" d="M19.375,6a.722.722,0,0,1,.634.416.641.641,0,0,1-.086.73,5.985,5.985,0,0,1-.6.6.672.672,0,0,1-.906-.038.659.659,0,0,1-.088-.884A5.648,5.648,0,0,1,19,6.15,1.239,1.239,0,0,1,19.375,6" transform="translate(-6.094 -2.01)" fill="#10cfc9"/>
        <path id="Path_36" data-name="Path 36" d="M6.3,6.045A1.631,1.631,0,0,1,7.586,7.2a.653.653,0,0,1-.368.635.632.632,0,0,1-.747-.075,5.523,5.523,0,0,1-.6-.595.632.632,0,0,1-.086-.728A.627.627,0,0,1,6.3,6.045" transform="translate(-1.913 -2.024)" fill="#10cfc9"/>
      </g>
    </g>
    <rect id="Rectangle_4108" data-name="Rectangle 4108" width="24" height="24" transform="translate(-54 2119)" fill="none"/>
  </g>
</svg>
