<svg xmlns="http://www.w3.org/2000/svg" width="38" height="38" viewBox="0 0 38 38">
  <g id="Group_4653" data-name="Group 4653" transform="translate(-5782.721 -866.341)">
    <rect id="Rectangle_4270" data-name="Rectangle 4270" width="38" height="38" transform="translate(5782.721 866.341)" fill="none"/>
    <g id="Group_4518" data-name="Group 4518" transform="translate(5785.671 868.722)">
      <g id="Group_4519" data-name="Group 4519" transform="translate(0)">
        <path id="Path_6805" data-name="Path 6805" d="M81.3,0A17.3,17.3,0,0,1,83.04.092a3.435,3.435,0,0,1,2.9,3.32c.014.568.02,1.138,0,1.705a.431.431,0,0,0,.334.5,13.709,13.709,0,0,1,8.31,8.43,13.952,13.952,0,0,1-18.955,17.3,1.183,1.183,0,0,1-.74-1.578,1.2,1.2,0,0,1,1.684-.549A11.212,11.212,0,0,0,88.486,27.7,10.924,10.924,0,0,0,92.571,15.89a10.911,10.911,0,0,0-9.109-8.649c-4.922-.926-8.889.858-11.828,4.9a1.253,1.253,0,0,1-1.312.638,1.17,1.17,0,0,1-.68-1.859,13.675,13.675,0,0,1,5.1-4.6c.523-.274,1.073-.5,1.622-.725a.385.385,0,0,0,.286-.422,16.759,16.759,0,0,1,.07-2.28A3.419,3.419,0,0,1,79.991.032c.436-.014.873,0,1.309,0V0M78.969,4.9a12.817,12.817,0,0,1,4.641-.014c0-.53.033-1.038-.009-1.54a1.112,1.112,0,0,0-1.085-.987q-1.215-.027-2.431,0a1.129,1.129,0,0,0-1.112,1.079c-.022.469,0,.939,0,1.462" transform="translate(-62.729)" fill="#10cfc9"/>
        <path id="Path_6806" data-name="Path 6806" d="M159.283,141.339a3.455,3.455,0,0,1-2.3-6.038,3.389,3.389,0,0,1,3.855-.484.386.386,0,0,0,.5-.053c.961-.778,1.929-1.547,2.9-2.315a1.145,1.145,0,1,1,1.423,1.777q-1.43,1.153-2.87,2.292a.41.41,0,0,0-.177.506,3.438,3.438,0,0,1-3.328,4.315m1.148-3.461a1.151,1.151,0,1,0-1.138,1.155,1.156,1.156,0,0,0,1.138-1.155" transform="translate(-140.661 -119.281)" fill="#10cfc9"/>
        <path id="Path_6807" data-name="Path 6807" d="M5.784,206.2H1.21a1.137,1.137,0,0,1-1.063-.617,1.071,1.071,0,0,1,.031-1.131A1.127,1.127,0,0,1,1.2,203.9q4.575,0,9.149,0a1.15,1.15,0,1,1,.007,2.3c-1.525.008-3.05,0-4.575,0" transform="translate(0 -184.12)" fill="#10cfc9"/>
        <path id="Path_6808" data-name="Path 6808" d="M28.647,158.291c-1.1,0-2.209,0-3.314,0a1.159,1.159,0,1,1,.009-2.3q3.314,0,6.627,0a1.161,1.161,0,1,1-.009,2.3q-1.657,0-3.314,0" transform="translate(-21.736 -140.854)" fill="#10cfc9"/>
        <path id="Path_6809" data-name="Path 6809" d="M28.7,251.812c1.1,0,2.209,0,3.314,0a1.156,1.156,0,1,1,.016,2.3q-3.368,0-6.736,0a1.156,1.156,0,1,1,.02-2.3c1.129,0,2.257,0,3.386,0" transform="translate(-21.736 -227.384)" fill="#10cfc9"/>
      </g>
    </g>
  </g>
</svg>
