<svg id="Group_4802" data-name="Group 4802" xmlns="http://www.w3.org/2000/svg" width="17.566" height="17.568" viewBox="0 0 17.566 17.568">
  <g id="Group_4548" data-name="Group 4548" transform="translate(0 0)">
    <path id="Path_6821" data-name="Path 6821" d="M0,9.3V8.271c.011-.061.023-.121.032-.182C.087,7.711.118,7.327.2,6.955a8.532,8.532,0,0,1,3.26-5.139A8.521,8.521,0,0,1,10.628.207a8.481,8.481,0,0,1,5.116,3.237,8.541,8.541,0,0,1,1.777,6.22,8.485,8.485,0,0,1-2.143,4.91A8.625,8.625,0,0,1,10.3,17.431c-.331.059-.666.092-1,.137H8.269a.945.945,0,0,0-.132-.028A8.36,8.36,0,0,1,4.3,16.331,8.668,8.668,0,0,1,.137,10.3C.075,9.967.045,9.632,0,9.3m9.972-.552c-.085.09-.126.136-.17.18l-2.9,2.9A1.906,1.906,0,0,0,6.742,12a.721.721,0,0,0,.222,1.077.742.742,0,0,0,.944-.188L11.4,9.4a.761.761,0,0,0,0-1.232L7.931,4.7a1.815,1.815,0,0,0-.165-.15.724.724,0,0,0-1.145.37.753.753,0,0,0,.247.788Q8.331,7.169,9.792,8.63a1.083,1.083,0,0,0,.18.118" transform="translate(0 0)" fill="#13d0ca"/>
  </g>
</svg>
