<svg xmlns="http://www.w3.org/2000/svg" width="16" height="16" viewBox="0 0 16 16">
  <g id="Group_4630" data-name="Group 4630" transform="translate(-488 -1163)">
    <rect id="Rectangle_4369" data-name="Rectangle 4369" width="16" height="16" transform="translate(488 1163)" fill="none"/>
    <g id="Group_4628" data-name="Group 4628" transform="translate(490.5 1164.5)">
      <g id="Group_4629" data-name="Group 4629" transform="translate(0.5 0.5)">
        <path id="Path_6844" data-name="Path 6844" d="M9.38,12.5H3.761a1.522,1.522,0,0,1-1.421-1.421L.513,1.2S.352.5,1.157.5H2.422A1.364,1.364,0,0,1,3.6,1.693L4.76,8.214a.715.715,0,0,0,.715.541L8.5,8.747s1.249-.056,1.479.9l.063,2.211A.829.829,0,0,1,9.38,12.5Z" transform="translate(-0.5 -0.5)" fill="none" stroke="#7c868d" stroke-linecap="round" stroke-linejoin="round" stroke-width="1"/>
        <line id="Line_100" data-name="Line 100" x2="4.064" transform="translate(3.824 5.23)" fill="none" stroke="#7c868d" stroke-linecap="round" stroke-linejoin="round" stroke-width="1"/>
      </g>
    </g>
  </g>
</svg>
