<svg xmlns="http://www.w3.org/2000/svg" width="24" height="24" viewBox="0 0 24 24">
  <g id="Group_84" data-name="Group 84" transform="translate(54 -2207)">
    <rect id="Rectangle_4114" data-name="Rectangle 4114" width="24" height="24" transform="translate(-54 2207)" fill="none"/>
    <g id="Group_76" data-name="Group 76" transform="translate(-47 2212)">
      <g id="Group_83" data-name="Group 83" transform="translate(0 0)">
        <path id="Path_41" data-name="Path 41" d="M1.639,26.624c-.087-.022-.174-.043-.261-.067A1.856,1.856,0,0,1,.008,24.77c-.009-1.1-.011-2.2,0-3.293a1.858,1.858,0,0,1,1.884-1.852h.982c0,.016.007.027,0,.032A3.777,3.777,0,0,0,2.4,21.1c-.159.71-.323,1.42-.468,2.133a1.471,1.471,0,0,0,1.379,1.725q1.366.024,2.734,0A1.468,1.468,0,0,0,7.42,23.227q-.294-1.416-.626-2.824a5.97,5.97,0,0,0-.3-.779c.046,0,.116,0,.185,0a9.444,9.444,0,0,1,1.05.025,1.829,1.829,0,0,1,1.613,1.827q.018,1.646,0,3.293A1.853,1.853,0,0,1,7.771,26.6a.341.341,0,0,0-.061.025Z" transform="translate(0 -12.624)" fill="#10cfc9"/>
        <path id="Path_42" data-name="Path 42" d="M9.624,5.465H8.167L7.913,4.324c-.043-.191-.083-.382-.129-.572A.289.289,0,0,0,7.475,3.5a.924.924,0,0,1-.908-.95q-.007-.8,0-1.6A.923.923,0,0,1,7.53,0Q8.9,0,10.263,0a.923.923,0,0,1,.964.949q.008.8,0,1.6a.924.924,0,0,1-.908.951c-.193.011-.276.089-.324.3L9.646,5.375c-.006.026-.013.052-.022.09" transform="translate(-4.222 0)" fill="#10cfc9"/>
        <path id="Path_43" data-name="Path 43" d="M8.3,23.753a1.605,1.605,0,0,0,2.768.01c.086.384.17.753.253,1.124s.158.72.236,1.08a.606.606,0,0,1-.61.774q-1.272,0-2.543,0a.594.594,0,0,1-.6-.711c.154-.752.327-1.5.5-2.276" transform="translate(-5.013 -15.281)" fill="#10cfc9"/>
        <path id="Path_44" data-name="Path 44" d="M11.179,17.8H12.55a.158.158,0,0,1,.015.041c0,.442.01.884,0,1.325a.69.69,0,0,1-.6.677.7.7,0,0,1-.765-.481.314.314,0,0,1-.021-.092c0-.486,0-.972,0-1.47" transform="translate(-7.192 -11.452)" fill="#10cfc9"/>
        <path id="Path_45" data-name="Path 45" d="M3.6,2.822v1.49a4.775,4.775,0,0,1-.5-.1.684.684,0,0,1,.032-1.3c.148-.041.3-.058.469-.089" transform="translate(-1.698 -1.815)" fill="#10cfc9"/>
      </g>
    </g>
  </g>
</svg>
