<svg xmlns="http://www.w3.org/2000/svg" width="38" height="38" viewBox="0 0 38 38">
  <g id="Group_4655" data-name="Group 4655" transform="translate(-5782.521 -952.521)">
    <rect id="Rectangle_4272" data-name="Rectangle 4272" width="38" height="38" transform="translate(5782.521 952.521)" fill="none"/>
    <g id="Group_4524" data-name="Group 4524" transform="translate(5785.68 955.68)">
      <g id="Group_4525" data-name="Group 4525" transform="translate(0 0)">
        <path id="Path_6815" data-name="Path 6815" d="M32.161,16.055a5.427,5.427,0,0,1-.337.737c-.93,1.428-1.878,2.845-2.808,4.273a1.933,1.933,0,0,0-.265.64q-.542,2.551-1.055,5.107a1.057,1.057,0,0,1-.9.907c-1.7.347-3.406.695-5.106,1.057a2.036,2.036,0,0,0-.671.279Q18.9,30.431,16.81,31.834a1.231,1.231,0,0,1-1.529.005c-1.325-.895-2.671-1.757-4-2.652A3.169,3.169,0,0,0,10.1,28.7c-1.6-.318-3.2-.658-4.8-.978a1.07,1.07,0,0,1-.92-.929q-.513-2.557-1.054-5.107a1.835,1.835,0,0,0-.253-.608c-.924-1.418-1.851-2.835-2.8-4.237a1.249,1.249,0,0,1,0-1.559c.948-1.4,1.874-2.819,2.8-4.237a1.834,1.834,0,0,0,.251-.609q.543-2.568,1.062-5.142a1.035,1.035,0,0,1,.88-.884q2.59-.526,5.177-1.067a1.732,1.732,0,0,0,.575-.243C12.4,2.194,13.786,1.277,15.168.363a1.233,1.233,0,0,1,1.758.01c1.2.79,2.411,1.555,3.585,2.378a4.657,4.657,0,0,0,1.867.751c1.465.278,2.922.6,4.385.893a1.091,1.091,0,0,1,.941.952q.5,2.54,1.048,5.073a1.937,1.937,0,0,0,.265.64c.93,1.428,1.877,2.845,2.808,4.273a5.593,5.593,0,0,1,.335.723M16.047,2.36c-.089.053-.18.1-.267.16-1.3.864-2.6,1.734-3.911,2.586a2.221,2.221,0,0,1-.738.306q-2.241.471-4.49.9a.419.419,0,0,0-.394.394c-.209,1.108-.469,2.207-.647,3.32a6.249,6.249,0,0,1-1.126,2.8c-.7.945-1.3,1.96-1.962,2.929a.458.458,0,0,0,.012.614q1.292,1.914,2.553,3.849a2.22,2.22,0,0,1,.306.737c.317,1.505.616,3.015.91,4.525a.374.374,0,0,0,.347.355c1.131.213,2.256.455,3.387.669a5.8,5.8,0,0,1,2.479.914c1.05.771,2.17,1.446,3.252,2.176a.418.418,0,0,0,.554,0q1.909-1.3,3.841-2.563a2.31,2.31,0,0,1,.767-.324c1.505-.318,3.014-.617,4.524-.912a.375.375,0,0,0,.352-.353c.267-1.407.564-2.809.832-4.217a3.333,3.333,0,0,1,.531-1.287c.815-1.194,1.6-2.407,2.412-3.6a.418.418,0,0,0,.009-.554q-1.3-1.927-2.576-3.876a2.022,2.022,0,0,1-.3-.666q-.478-2.275-.914-4.56a.444.444,0,0,0-.409-.423c-1.108-.209-2.207-.471-3.32-.643a6.281,6.281,0,0,1-2.831-1.15c-.947-.694-1.953-1.307-2.933-1.955-.078-.051-.158-.1-.251-.158" transform="translate(0 0)" fill="#10cfc9"/>
        <path id="Path_6816" data-name="Path 6816" d="M67.865,77.757a9.638,9.638,0,1,1,9.642,9.625,9.65,9.65,0,0,1-9.642-9.625m2.148-.033a7.492,7.492,0,1,0,7.581-7.472,7.484,7.484,0,0,0-7.581,7.472" transform="translate(-61.465 -61.681)" fill="#10cfc9"/>
        <path id="Path_6817" data-name="Path 6817" d="M133.9,147.042c.874-.875,1.705-1.721,2.552-2.552a1.064,1.064,0,0,1,1.831.41,1,1,0,0,1-.266,1.038q-1.66,1.68-3.336,3.344a1.049,1.049,0,0,1-1.545-.011q-.97-.949-1.92-1.919a1.07,1.07,0,1,1,1.523-1.5c.2.187.384.381.572.574s.373.39.589.617" transform="translate(-118.544 -130.535)" fill="#10cfc9"/>
      </g>
    </g>
  </g>
</svg>
